<?xml version="1.0" standalone="no"?>
<!DOCTYPE svg PUBLIC "-//W3C//DTD SVG 20010904//EN"
 "http://www.w3.org/TR/2001/REC-SVG-20010904/DTD/svg10.dtd">
<svg version="1.0" xmlns="http://www.w3.org/2000/svg"
 width="269.000000pt" height="67.000000pt" viewBox="0 0 269.000000 67.000000"
 preserveAspectRatio="xMidYMid meet">

<g transform="translate(0.000000,67.000000) scale(0.100000,-0.100000)"
fill="#000000" stroke="none">
<path d="M40 376 l0 -286 60 0 60 0 0 80 0 80 61 0 c74 0 108 18 140 74 33 56
35 203 4 255 -39 66 -62 76 -201 79 l-124 4 0 -286z m201 165 c21 -17 24 -28
24 -89 0 -83 -12 -102 -66 -102 l-39 0 0 105 0 105 29 0 c16 0 39 -9 52 -19z"/>
<path d="M1322 633 c-58 -85 -91 -237 -92 -420 l0 -123 60 0 60 0 0 55 0 55
50 0 50 0 0 -55 0 -55 61 0 62 0 -6 147 c-6 166 -27 264 -76 362 l-31 61 -59
0 c-54 0 -62 -3 -79 -27z m101 -131 c9 -37 19 -100 23 -140 l7 -72 -53 0 -53
0 5 78 c6 79 35 202 48 202 4 0 14 -31 23 -68z"/>
<path d="M970 592 c-113 -14 -125 -38 -125 -252 0 -148 2 -169 21 -200 13 -24
33 -39 60 -48 49 -17 145 -10 180 13 34 22 54 73 54 135 l0 50 -54 0 -55 0 -3
-51 c-3 -59 -20 -76 -61 -65 l-27 6 0 153 c0 157 5 177 41 177 30 0 49 -29 49
-76 l0 -44 56 0 57 0 -6 65 c-7 74 -18 99 -50 117 -25 14 -100 25 -137 20z"/>
<path d="M2114 589 c-17 -5 -37 -16 -44 -24 -17 -21 -30 -19 -30 5 0 17 -7 20
-50 20 l-50 0 0 -285 0 -285 55 0 55 0 0 57 0 56 23 -21 c48 -45 134 -36 162
18 22 43 21 368 -1 416 -20 42 -66 59 -120 43z m10 -95 c13 -13 16 -42 16
-158 0 -149 -5 -166 -45 -166 -41 0 -45 17 -45 170 0 150 5 170 41 170 10 0
25 -7 33 -16z"/>
<path d="M2445 592 c-110 -19 -120 -39 -120 -252 0 -230 15 -254 155 -255 140
0 160 32 160 255 0 155 -9 200 -43 229 -17 14 -117 29 -152 23z m75 -111 c5
-11 10 -78 10 -150 0 -104 -3 -133 -16 -145 -18 -19 -28 -20 -55 -6 -17 10
-19 23 -19 159 0 81 3 151 7 154 14 15 63 7 73 -12z"/>
<path d="M460 448 c0 -156 12 -223 55 -308 l25 -50 -40 0 c-39 0 -40 -1 -40
-35 l0 -35 93 0 c106 0 108 1 150 85 47 95 58 151 64 323 l6 162 -55 0 -55 0
-6 -162 c-3 -90 -11 -183 -17 -208 -5 -25 -13 -56 -16 -69 -3 -13 -9 -20 -13
-15 -20 20 -35 129 -40 284 l-6 165 -52 3 -53 3 0 -143z"/>
<path d="M1650 340 l0 -250 55 0 55 0 2 203 3 202 55 3 55 3 -1 42 -1 42 -112
3 -111 3 0 -251z"/>
</g>
</svg>
