<?xml version="1.0" encoding="UTF-8" standalone="no"?>
<svg
   version="1.0"
   width="45pt"
   height="55pt"
   viewBox="0 0 450 550"
   preserveAspectRatio="xMidYMid"
   id="svg8"
   sodipodi:docname="tube.svg"
   inkscape:version="1.3 (0e150ed, 2023-07-21)"
   xmlns:inkscape="http://www.inkscape.org/namespaces/inkscape"
   xmlns:sodipodi="http://sodipodi.sourceforge.net/DTD/sodipodi-0.dtd"
   xmlns="http://www.w3.org/2000/svg"
   xmlns:svg="http://www.w3.org/2000/svg">
  <defs
     id="defs8">
    <clipPath
       clipPathUnits="userSpaceOnUse"
       id="clipPath425">
      <path
         id="path426"
         style="fill:none;fill-rule:evenodd;stroke:#000000;stroke-width:242.788;stroke-dasharray:none;stroke-dashoffset:0;stroke-opacity:1"
         d="m 417.14355,-5487.6904 v 2949.58 H 3373.7988 v -2949.58 z m 1364.79495,218.4521 c 6.8293,-0.03 10.932,2.9894 12.1289,6.7237 10.123,0.9567 12.7156,11.4153 2.3437,17.5048 8.1864,3.1896 8.0216,13.5329 -3.0322,18.1934 0.141,-0.01 0.3008,-0.038 0.4395,-0.045 9.5212,-0.4223 13.9465,5.0302 13.1689,10.4443 6.389,3.8742 5.7609,13.728 -6.5478,18.7208 -10.3533,4.1992 -20.844,8.0533 -31.3331,11.9092 17.2806,2.0049 34.5185,4.3914 51.8702,5.9472 30.3237,4.6425 60.7553,8.6837 91.04,13.5938 21.6394,4.1907 43.4043,7.5763 65.3467,9.6532 10.0875,1.3227 20.082,3.0567 30.0879,4.7462 -2.5569,-1.3431 -5.1341,-2.6414 -7.7198,-3.9258 -5.4939,-0.6383 -10.9756,-1.4273 -16.4794,-1.9629 -10.6212,-1.0332 -14.3906,-7.0896 -13.169,-12.3633 -6.4374,-6.7562 -2.6976,-15.6095 7.0752,-15.6152 2.3064,0 4.9344,0.483 7.8516,1.6113 4.0332,1.5597 8.0937,3.0954 12.0849,4.7607 1.0509,0.4605 2.0767,0.9747 3.1201,1.4502 -6.0681,-6.4416 -3.8657,-14.4405 4.8633,-15.1464 0.6518,-0.053 1.3389,-0.068 2.0508,-0.03 0.1748,0.01 0.408,0.1177 0.5858,0.132 -4.4277,-1.8393 -8.8563,-3.6735 -13.2861,-5.5079 -5.6505,-2.3071 -11.391,-4.4137 -17.0802,-6.6211 -15.1635,-5.8839 -13.1631,-19.4316 -1.875,-20.4198 2.605,-0.228 5.7004,0.2085 9.1993,1.5673 3.3635,1.3062 6.7385,2.5874 10.1075,3.8819 0.759,-1.4925 1.7734,-2.9277 3.5155,-3.9552 0.9321,-3.6072 4.3623,-6.2901 9.4482,-6.2841 2.6151,0 5.6727,0.711 9.0381,2.373 2.0277,1.0014 4.0526,2.0019 6.0791,3.003 6.1935,0.1897 12.376,-0.2723 18.5596,-0.6008 1.4169,-0.8704 3.1838,-1.4471 5.2589,-1.5821 2.0664,-0.1343 4.4451,0.171 7.0605,1.0108 14.7756,-0.9155 29.5528,-1.9723 44.3554,-2.1094 8.7402,0.053 12.3209,-0.037 21.167,0.4245 4.7412,0.2482 9.4465,0.8386 14.1651,1.3184 4.1776,-2.8782 9.9432,-4.7378 17.2119,-4.834 2.2074,-0.03 4.5637,0.093 7.0458,0.4103 8.4921,1.0848 16.8168,3.0982 24.8731,6.0205 9.3068,3.2832 18.4853,6.9522 27.92,9.8583 7.2955,2.1405 14.9362,3.0476 22.0899,5.7276 6.231,2.2167 12.2874,4.8246 18.4129,7.3095 6.5771,2.6763 13.0166,5.6528 19.3506,8.8623 3.7235,1.8141 7.395,3.7302 11.2794,5.1857 10.2849,3.8539 10.8833,7.0033 7.1192,9.9169 10.1893,6.6777 6.4674,19.3856 -9.917,16.5234 -2.8855,-0.504 -2.5708,-0.378 -6.46,-1.6845 -1.1811,-0.3967 -3.6786,-1.3458 -6.0498,-2.2119 1.9485,0.9711 3.8905,1.9539 5.8446,2.9151 1.7365,0.908 3.4428,1.868 5.1564,2.8125 1.7124,0.6112 2.9997,1.3601 4.1307,2.3144 2.3269,1.369 4.6221,2.7897 6.8556,4.3213 13.5894,9.32 10.5915,21.9627 -0.7028,20.8446 -1.5829,3.5331 -5.7669,6.504 -13.4619,6.504 -0.6765,0 -1.2887,-0.1087 -1.8311,-0.117 12.9348,9.2796 9.7202,22.6818 -7.6465,17.2998 -1.4652,-0.4545 -2.9736,-0.7845 -4.3945,-1.3623 -0.9719,-0.3952 -1.8867,-0.8251 -2.7978,-1.2598 -0.7065,0.45 -1.0481,1.1566 -2.0069,1.4062 2.7588,1.2081 6.4066,2.8123 9.0235,4.1602 0.66,0.3405 1.2904,0.7425 1.9336,1.1133 1.1767,0.6795 2.2057,1.3873 3.1347,2.1094 3.7696,0.534 7.5121,1.324 11.3233,1.3183 20.0158,-0.045 20.0158,20.1018 0,20.2149 -7.8522,0.045 -15.6191,-1.2203 -23.3204,-2.6075 -2.3475,-0.5535 -4.7012,-1.0876 -7.0459,-1.6552 0.717,0.315 1.2737,0.5363 2.6075,1.04 15.3667,5.8035 15.9649,19.2546 5.083,20.7861 1.0574,0.6187 2.1665,1.1213 3.2226,1.7432 74.8718,44.091 112.3875,101.6995 123.2813,157.5879 47.4285,40.7376 62.0166,96.7863 43.6816,146.9678 40.3952,-0.438 21.0823,65.8811 -0.1027,138.8672 41.4233,-24.801 82.7326,-49.9943 126.2842,-70.8545 19.1455,-9.1737 36.322,-13.0001 50.9179,-12.8174 63.249,0.7914 78.0909,76.7068 -4.4531,117.3486 -46.3258,22.812 -90.1123,50.4869 -134.5312,76.7432 l -39.7266,21.2695 c -8.9568,4.7964 -17.523,8.2986 -25.6641,10.752 3.678,41.6678 30.9396,62.1007 109.6582,32.6074 40.8534,-23.2266 80.7132,-33.8773 115.9424,-33.2959 118.5846,1.9566 184.6611,125.7391 63.7207,282.6416 5.592,-1.0581 10.2071,-1.4998 13.7696,-1.2598 52.2807,3.5238 -98.5439,137.0107 1.6992,115.0342 1.3791,-0.3022 2.719,-0.8981 4.1308,-0.9082 0.351,0 -0.288,0.6862 -0.5715,0.8936 -2.3784,1.7356 -4.9491,3.1933 -7.3536,4.8925 -14.9478,10.5644 -29.5983,21.6088 -44.2821,32.5342 -1.3845,1.1034 -2.8056,2.1645 -4.2042,3.252 9.7773,-1.4694 20.5538,-3.5998 33.047,-6.8848 36.4125,-9.576 39.4777,-9.6493 71.7334,-45.7617 6.7365,-7.5426 9.1029,-18.136 14.7801,-26.499 0.9417,-1.3861 0.037,3.3645 -0.1905,5.0244 -0.9612,6.9528 -2.2579,13.8582 -3.3838,20.7861 -8.133,43.0173 -16.955,85.9024 -23.0273,129.2725 -3.4866,33.452 -6.3351,66.6976 -12.3633,99.8291 -12.9176,56.8003 -41.717,107.036 -72.9932,155.4052 -27.2511,45.8748 -65.7569,79.546 -112.4267,104.3848 -77.6599,32.1662 -125.8325,25.4795 -205.2979,-28.8867 -18.9447,-12.9613 -26.2607,-37.6555 -39.3896,-56.4844 -2.3565,-3.3801 -4.4853,-6.5865 -6.5625,-9.7558 -77.769,39.6563 -165.6126,51.1704 -251.8506,63.4716 -97.7343,12.7683 -196.094,18.4684 -294.5215,21.709 -36.2694,20.5584 -78.9748,21.7949 -118.6963,2.6807 -103.61,1.3236 -207.2399,2.0091 -310.8545,2.5488 -10.7967,0.7965 -21.8935,1.3053 -33.5302,1.2744 -17.3672,-0.045 -34.7409,-0.085 -52.1045,-0.132 -21.8316,3.2447 -53.9365,18.5883 -56.9239,-0.3368 -6.1463,-38.946 -6.6198,-78.2304 -4.5996,-117.6563 -2.4042,-1.3573 -4.9935,-2.386 -7.3095,-3.8965 -49.0389,-31.9728 -91.9048,-83.5835 -116.9239,-136.538 -8.6058,-18.2154 -14.4789,-37.5836 -21.7236,-56.3819 -2.6187,-25.6803 -7.9874,-51.2381 -7.8662,-77.0508 0.082,-17.4292 4.415,-34.6522 8.4668,-51.6064 15.3267,-64.1266 50.952,-121.0119 88.7109,-174.0088 31.5561,-40.0503 44.6919,-59.5932 83.1006,-95.5077 75.7452,-70.8282 169.5722,-117.7595 264.082,-157.9982 16.5163,-6.0909 32.9276,-12.4819 49.3946,-18.7207 1.1841,-21.6504 7.5995,-44.0462 19.7168,-65.9765 -101.4702,-20.5017 -133.6818,-119.8257 -72.6856,-214.1748 -71.1248,-72.6123 -54.7777,-174.2313 36.6797,-221.7774 2.6238,-11.0163 9.3777,-22.2874 20.0391,-32.8125 -23.7888,-17.082 -24.3087,-46.2996 -2.2266,-69.2871 -6.7167,3.0684 -13.4348,6.1431 -20.1562,9.1992 -8.7327,3.8846 -4.5261,2.0351 -12.627,5.5958 -9.2742,4.0761 -15.8533,1.3198 -17.7979,-3.4131 -13.7064,1.6645 -17.8058,-13.5105 -1.6259,-20.3613 5.1475,-2.1797 10.2305,-4.5044 15.3662,-6.7091 -0.6277,-1.1344 0.01,-2.6497 0,-4.0135 -9.4678,1.7128 -18.9489,3.3471 -28.4326,4.9218 -19.7483,3.279 -23.0592,-16.6734 -3.3106,-19.9512 14.5767,-2.4194 29.0269,-5.5715 43.5352,-8.4229 0.3015,-0.9118 0.735,-1.8418 1.289,-2.7685 -0.045,0.01 -0.088,0.023 -0.132,0.03 -19.672,3.7095 -23.4018,-16.2174 -3.7207,-19.878 0.9112,-0.1687 1.8283,-0.3435 2.7393,-0.513 2.1809,-0.4635 3.3569,-0.6705 5.4931,-1.2744 3.4441,-0.9742 6.6964,-2.4651 10.0049,-3.8086 0.03,-1.5503 1.0972,-3.1042 2.0654,-4.6435 -4.2051,-4.8933 -6.2119,-10.6987 0.8643,-14.1358 0.7909,-0.3847 1.568,-0.8032 2.373,-1.1572 2.246,-0.9872 4.6863,-1.4979 6.9434,-2.4609 3.2643,-1.1897 6.5648,-2.2369 9.9463,-3.0469 4.4301,-1.167 8.8613,-2.386 13.4033,-3.0469 4.545,-0.8388 9.0685,-1.745 13.5791,-2.7539 3.6142,-0.7253 7.2574,-1.3296 10.8545,-2.1387 3.5427,-0.7238 7.0553,-1.5951 10.6641,-1.9482 4.1756,-0.642 8.3027,-1.567 12.3925,-2.6221 4.2694,-1.257 8.5021,-2.6726 12.6856,-4.1894 5.4549,-2.1124 10.8987,-4.2516 16.3037,-6.4893 6.2267,-2.4681 12.5006,-4.8244 18.6914,-7.3828 5.8997,-2.3589 11.7432,-4.8918 17.8125,-6.7969 8.2314,-2.5344 16.6541,-4.2731 25.0635,-6.1084 7.0142,-1.5313 14.0437,-2.9957 20.9472,-4.9804 5.2859,-1.5729 10.5619,-3.1923 15.6299,-5.3907 6.9371,-2.688 13.9402,-5.1849 21.0059,-7.5146 8.187,-2.7528 16.4065,-5.5303 24.917,-7.1192 5.2394,-0.9764 10.4686,-2.0042 15.7471,-2.7392 1.2392,-0.1725 2.4149,-0.258 3.5156,-0.264 z m -545.9619,1662.0264 c 2.3274,-0.3457 4.6512,-0.693 6.6943,-0.7027 26.3133,-0.141 52.6309,-0.3023 78.9404,-0.4395 76.0818,-5.6115 130.9871,-31.0739 165.1172,-65.3027 -35.6761,-31.862 -66.6466,-82.5263 -85.1074,-154.2335 -3.2524,-12.6327 -6.5181,-25.2768 -9.7705,-37.9101 -4.3697,-18.0078 -7.8407,-36.1889 -11.7774,-54.2724 -26.8662,-6.6214 -57.1812,-10.5213 -91.3623,-10.5616 -5.3607,-0.01 -10.7266,-0.01 -16.0839,-0.015 38.4289,127.2388 110.3718,308.7759 -57.4073,225.4248 -13.4818,-6.6978 -27.4813,-12.5084 -40.5761,-19.8779 3.0023,39.3111 6.1396,78.6422 6.6357,117.7441 18.2312,0.045 36.466,0.097 54.6973,0.1463 z m 973.9599,-1560.2637 c 0.023,0.015 0.045,0.037 0.075,0.06 0.5378,0.077 1.076,0.1448 1.6113,0.2348 -0.558,-0.12 -1.1248,-0.183 -1.6846,-0.2933 z m -903.7207,433.8281 c 45.3097,1.6053 68.6991,55.5218 14.7217,111.6211 -25.6465,26.6546 -50.2066,54.7587 -72.5537,84.2725 -7.4407,9.8269 -14.3844,20.0195 -21.5772,30.0293 -43.5937,61.3785 -71.0672,131.6574 -94.1015,202.793 -2.4401,8.6304 -4.8841,17.268 -7.3242,25.8984 -30.8093,108.9683 -141.13407,77.5933 -110.0245,-31.2891 2.8562,-9.9963 5.7132,-19.989 8.5694,-29.9853 26.8941,-82.3542 59.3796,-163.4033 110.1123,-234.3457 8.3641,-11.5491 16.4612,-23.3076 25.0928,-34.6582 23.7568,-31.2436 49.8408,-61.0462 76.9189,-89.3994 24.44,-25.5934 49.5707,-35.6662 70.166,-34.9366 z m 1117.7344,360.3663 c -2.9006,2.3826 -5.8865,4.5809 -8.7744,7.0019 -1.348,1.1685 -2.7223,2.3055 -4.0723,3.4717 0.7208,0.243 1.4684,0.4313 2.1826,0.6885 3.5371,-3.8776 7.1124,-7.4115 10.6641,-11.1621 z m -1150.459,332.2851 c -31.1845,-3.5572 -20.0423,46.7176 -1.1719,109.3506 35.0397,-0.1815 70.0814,-0.3892 105.1172,-0.5857 -5.3698,-25.0902 -11.1038,-50.1107 -16.3183,-75.2345 -2.8598,4.3968 -5.7212,8.7039 -8.5987,13.5498 2.9717,2.7696 5.7137,6.051 9.7266,12.0264 2.2649,3.3723 -4.5032,-4.4622 -10.3565,-10.9278 -3.1635,5.3889 -5.9649,10.7096 -8.2617,15.7179 -0.3397,5.153 -0.7723,10.2905 -1.6113,15.3809 -0.2452,1.4784 -2.3852,4.9152 -2.8564,3.4863 -1.3266,-4.0233 0.8529,-10.9848 4.4677,-18.8672 0.3083,-4.6747 0.5468,-9.3561 0.9522,-14.0187 -0.022,-2.9925 -1.2061,-6.2383 -0.075,-8.9794 0.2243,-0.5123 3.6648,3.1732 7.3829,7.2802 0.2175,-0.3697 0.411,-0.7297 0.63,-1.0986 -3.2367,-3.0162 -6.7443,-5.4249 -12.4511,-9.7998 -31.775,-24.3585 -53.0697,-35.7394 -66.5772,-37.2802 z m 1304.9414,185.8887 c -1.7752,8.8661 -3.6154,17.7147 -5.5078,26.5576 5.9426,16.9175 14.3912,45.1692 15,47.3291 5.8844,25.5647 4.0931,16.7954 7.7197,42.4365 42.5245,-0.3667 55.0913,-21.6066 -0.4395,-91.4209 -6.117,-7.6902 -10.9562,-16.8657 -16.7726,-24.9023 z m -5.5078,26.5576 c -4.967,-14.1402 -8.218,-20.4984 -3.3838,4.2187 -1.0082,19.3375 -3.8993,30.3092 -0.249,12.8614 1.1922,-5.6983 2.4148,-11.3887 3.6328,-17.0801 z" />
    </clipPath>
    <clipPath
       clipPathUnits="userSpaceOnUse"
       id="clipPath437">
      <path
         id="path438"
         style="fill:none;fill-rule:evenodd;stroke:#000000;stroke-width:242.788;stroke-dasharray:none;stroke-dashoffset:0;stroke-opacity:1"
         d="m 1733.5533,5475.6607 c 5.115,-1.8286 10.1472,-3.8804 15.0293,-6.2841 4.4369,-2.0504 8.9052,-4.0182 13.3154,-6.1231 18.0665,-8.6225 9.0594,-26.648 -9.0381,-18.0908 -4.2302,2.0002 -8.5101,3.8959 -12.7588,5.8594 -5.8687,2.8968 -11.9716,5.2428 -18.1933,7.251 -3.5877,1.0709 -7.2076,2.0257 -10.8399,2.9296 -1.3884,0.075 -2.845,0.2385 -4.4385,0.615 -2.3641,0.5595 -4.7228,1.1016 -7.0898,1.6406 -1.7587,0.255 -3.5193,0.489 -5.2734,0.747 -2.3776,0.3667 -4.7346,0.8502 -7.1045,1.2597 -0.7667,-0.03 -1.5329,-0.077 -2.2998,-0.1028 -2.866,-0.015 -5.7103,-0.3645 -8.5547,-0.6885 -3.5675,-0.4882 -7.1594,-0.8256 -10.752,-1.0693 -3.7224,-0.9715 -7.4726,-1.8362 -11.2646,-2.5195 -5.4726,-0.9927 -10.9583,-1.9597 -16.4502,-2.8565 -1.2109,-5.5964 -2.3497,-11.2109 -3.4278,-16.831 -3.8793,-19.0608 -7.3273,-38.2046 -11.4404,-57.2168 -3.8319,-17.5006 -7.4104,-35.0593 -10.3418,-52.7344 -3.274,-20.0868 -9.3611,-39.5209 -14.6631,-59.1211 -3.8025,-15.4161 -7.612,-30.8175 -11.5429,-46.2012 -1.8098,-8.0514 -0.8847,-3.9506 -2.7832,-12.3193 -9.818,-43.2769 -46.0189,-44.6915 -55.2247,-16.7432 -0.462,-1.2239 -0.887,-2.4571 -1.3623,-3.6767 -9.6092,-24.6567 -26.5008,-33.1345 -39.5947,-29.8096 -3.9324,-3.9858 -8.1963,-6.6025 -12.4805,-8.0567 -5.6471,-42.1278 -44.889,-44.9399 -54.58,-12.9638 -9.3506,-8.4735 -16.9147,-10.6472 -17.7539,9.6386 -0.2985,7.2183 0.264,14.3925 0.9961,21.5772 0.6848,6.144 1.3213,12.2867 1.8164,18.4424 -5.678,6.2445 -10.0712,15.9361 -11.5723,29.5019 -2.9997,27.1061 -2.7462,54.4998 -3.4863,81.7383 -1.659,38.6252 -3.8838,77.2187 -5.9034,115.8252 -3.2411,-0.8722 -6.1668,-1.1391 -8.5107,-0.6593 v -508.6815 h 938.4961 v 279.0381 c -2.5128,1.3731 -5.2281,3.255 -8.042,5.4345 -9.6523,-29.8454 -43.2995,-31.4924 -52.8076,-6.1817 -9.6558,-8.2551 -22.0942,-8.1562 -31.0986,-0.3225 -11.3584,-10.7959 -27.4544,-9.3768 -36.8409,3.5157 -1.1327,-1.4988 -2.4134,-2.5266 -4.0429,-2.1827 -3.1267,0.66 -6.0971,1.7365 -9.0088,2.959 -18.6951,-25.9524 -53.8297,-12.0869 -47.4463,30.2344 -1.0614,1.0008 -0.681,1.3592 0.2347,1.4795 0.1538,0.8976 0.3225,1.8024 0.513,2.7246 0.123,0.5963 0.243,1.1908 0.366,1.7871 0.045,0.2985 1.7792,10.7188 1.9922,10.9131 0.3578,0.3278 0.01,-0.963 0.015,-1.4502 0.068,-8.2107 1.3358,-12.8381 3.4424,-14.9414 0.8108,-0.2025 1.3244,-0.276 2.2412,-0.5272 0.1538,12.0188 0.3443,24.0393 0.8496,36.0498 0.6,12.2437 1.5643,24.452 2.7832,36.6504 1.0629,14.747 0.8187,29.4924 -0.8935,44.1943 -2.1038,21.9795 -5.1525,43.8647 -6.9141,65.874 -1.1276,15.5049 -2.1153,31.0218 -2.7979,46.5527 -7.3926,1.7674 -14.7078,3.8278 -21.9726,6.0791 -10.322,3.1479 -20.7054,6.1667 -31.1865,8.7305 -6.0712,1.311 -12.1711,2.3577 -18.4131,2.0362 -11.6061,-0.5978 -19.8267,2.4417 -24.6973,7.0751 z m 400.4443,-253.2421 c -0.01,-0.249 -0.015,-0.498 -0.015,-0.747 0.5385,-0.1253 1.1014,-0.1568 1.6993,-0.1028 0.03,0.129 0.075,0.237 0.1027,0.366 -0.666,0.1913 -1.1658,0.315 -1.7871,0.483 z m 1.7871,-0.483 c 0.2145,-0.06 0.5295,-0.174 0.747,-0.234 3.0962,0.648 6.8682,3.3015 10.9131,6.8262 -1.9535,0.5377 -3.8759,1.1868 -5.9034,1.4793 -3.5481,0.5115 -4.7293,-3.6699 -5.7568,-8.0712 z m 162.627,253.7255 c 1.5661,-4.5596 2.7075,-9.876 3.2959,-15.996 2.0738,-21.525 1.8497,-43.2269 2.0947,-64.8341 0.093,-14.4639 0.348,-28.929 0.6593,-43.3887 4.2831,-6.2058 7.5945,-14.5899 9.0819,-25.3272 0.3345,-2.4121 0.6195,-4.8354 0.9375,-7.2508 v 156.7968 z" />
    </clipPath>
    <clipPath
       clipPathUnits="userSpaceOnUse"
       id="clipPath526">
      <path
         id="path527"
         style="fill:none;fill-rule:evenodd;stroke:#000000;stroke-width:242.788;stroke-dasharray:none;stroke-dashoffset:0;stroke-opacity:1"
         d="m 7307.0215,1441.1621 c -80.8552,-11.2798 -162.409,-16.2773 -243.9111,-20.0244 -0.9738,-0.083 -1.9547,-0.102 -2.9297,-0.1755 v -738.75 h 246.8408 z" />
    </clipPath>
    <clipPath
       clipPathUnits="userSpaceOnUse"
       id="clipPath577">
      <path
         id="path578"
         style="fill:none;fill-rule:evenodd;stroke:#000000;stroke-width:242.788;stroke-dasharray:none;stroke-dashoffset:0;stroke-opacity:1"
         d="m 4659.9071,6106.5256 c -4.6394,-21.0754 -12.0792,-42.3038 -21.9141,-63.4278 14.6705,2.4122 29.3988,4.4143 44.0478,6.9727 89.2053,17.0732 178.0244,36.2076 266.587,56.4551 z m 800.0976,-889.3067 c -73.7403,-14.0763 -147.6038,-27.4997 -221.4111,-41.2207 h 183.2959 c 13.9435,0 26.5997,-1.2911 38.1152,-3.5303 z m -1763.6279,-3.4277 c -30.3216,-1.7623 -60.6211,-3.5107 -90.9082,-6.5186 -66.452,-7.0829 -132.8874,-14.2911 -199.4531,-20.2295 -4.9829,-0.3833 -9.949,-0.8806 -14.9122,-1.4062 v -203.335 c 37.2331,1.2522 74.4686,2.4611 111.709,3.4571 11.2218,30.9688 46.6732,58.6403 108.6475,64.0283 40.4115,3.5132 19.755,1.9285 61.9629,4.7021 32.797,1.7115 65.6059,2.8193 98.4228,3.6328 -44.1004,43.9643 -69.7127,98.189 -75.4687,155.669 z m 1763.6279,-196.0401 c -11.5155,-2.2391 -24.1717,-3.5302 -38.1152,-3.5302 H 5327.7 c 44.081,-2.7814 88.1502,-6.0754 132.3047,-7.1045 z m -47.5049,-170.3759 c -1.8219,-0.9154 -4.3701,-1.3215 -6.2988,-2.168 8.4596,-41.3739 -26.0292,-90.7829 -108.8965,-102.4512 -16.8757,-2.3762 -33.8052,-4.2629 -50.7275,-6.2109 90.2503,-36.9827 68.8181,-149.9414 -65.1856,-149.9414 h -73.9306 c -40.9941,-0.621 -81.9314,0.5685 -122.8858,2.2119 -51.1484,2.6184 -102.3732,2.7921 -153.5742,3.1201 -104.6387,0.4808 -209.2764,0.6638 -313.916,0.8057 -124.7803,0.1283 -249.5611,0.1268 -374.3408,0.1463 -89.1607,0.01 -178.3344,0.023 -267.4951,0.03 -63.085,-0.1868 -126.1057,-0.8072 -189.0967,2.9149 -77.8985,7.6062 -155.4723,18.1037 -233.2764,26.6163 -20.5129,2.5932 -41.1333,3.8913 -61.7725,4.7607 V 691.02798 h 723.8233 c 11.6418,12.35085 30.0695,22.66313 55.8984,28.05173 -0.06,0.339 -0.327,0.62625 -0.381,0.96682 -4.2162,-0.86782 -8.4334,-1.734 -12.6415,-2.6367 -107.1875,-22.98892 -133.0949,81.1122 -34.1895,109.32128 -3.909,13.6932 -1.2588,28.3401 8.3496,40.63477 -47.2535,17.061 -48.8831,82.8408 28.3593,112.10445 19.683,7.45673 39.8259,13.2762 60.2197,18.17873 -19.596,10.76874 -39.1258,21.65854 -58.8867,32.12404 -24.24,12.0624 -48.4597,23.9801 -73.5058,34.3067 -19.2794,7.9497 -19.1838,7.0231 -37.5146,15.0586 -2.5572,1.1208 -5.0014,2.49 -7.5,3.7353 -82.3461,41.0441 -64.0096,116.2812 0.1169,115.9569 14.7997,-0.075 32.0467,-4.1668 51.0499,-13.6375 2.4555,-1.2239 4.8493,-2.5875 7.3681,-3.6768 17.7875,-7.6926 36.0818,-13.9778 53.8183,-21.8994 10.5865,-4.7276 17.4355,-7.9722 24.4336,-11.3379 -45.684,61.5351 -28.8348,147.3664 36.8555,172.6758 -7.9766,20.1454 13.7575,35.118 45.4394,47.9004 -17.1933,32.5734 -28.3482,67.5799 -36.123,103.4619 -7.2561,32.0695 -7.6924,64.7065 -6.1231,97.3681 0.7493,12.4428 2.9505,24.6957 5.0391,36.9579 -11.5626,25.8003 -16.4679,54.0276 -12.4072,83.1885 1.3098,9.4071 4.5312,18.4473 6.7968,27.671 4.1772,11.1988 9.8035,21.3481 15.9815,31.0987 -20.1514,0.037 -40.303,0.076 -60.4541,0.088 h -13.96 c -54.6468,0.03 -82.2798,26.7483 -84.1699,54.3165 h -5.0098 c -113.2404,0 -113.2404,114.3896 0,114.3896 h 98.2178 149.4727 c 12.2709,0.126 24.5333,0.1942 36.7968,0.1755 36.7935,-0.053 73.5659,-0.8581 110.3174,-3.0469 50.0261,-4.2624 99.9351,-9.6304 150.0293,-13.0957 40.1199,-2.5656 80.2997,-3.848 120.4834,-4.834 103.067,-2.5287 109.9367,-97.5097 24.917,-112.4121 -0.1605,-30.3991 -30.6279,-57.4342 -89.4873,-47.6953 -26.2664,4.3461 -52.8317,5.8896 -79.3799,7.3389 -15.4321,0.7782 -30.8764,1.357 -46.3183,1.8457 18.4596,-37.0963 19.8369,-91.4893 -11.0157,-157.8369 -2.3682,-5.0931 -5.5035,-9.8688 -7.1043,-15.0879 -2.8866,-22.0776 -4.9561,-44.1302 -6.6505,-66.3428 -1.2125,-9.9192 -2.4803,-19.8919 -4.043,-29.7949 h 11.4258 c 158.8288,0 206.1108,-112.4554 142.1631,-179.6778 139.8105,-47.5512 112.9173,-216.1084 -81.6797,-216.1084 h -19.336 c -2.9181,-9.3264 -8.7156,-19.2124 -15.7323,-29.209 1.215,-0.6015 2.3905,-1.2222 3.5302,-1.875 13.6122,-3.0219 34.6616,-7.7127 39.3458,-9.1992 9.7407,-3.0912 19.0782,-7.2917 28.623,-10.9424 43.3917,-21.6738 71.0637,-60.34202 98.7744,-98.46677 40.5417,-55.7736 21.4584,-100.779 -14.3115,-107.6367 -6.5007,-10.7814 -18.168,-20.15655 -34.0137,-27.04102 8.7522,-30.9039 -17.0117,-67.7283 -79.746,-71.4258 -33.7962,-1.99193 -67.5743,-4.5561 -100.9865,-10.26855 -16.4736,-2.5041 -32.9107,-5.24048 -49.3945,-7.6758 -3.3465,-5.52803 -6.4599,-10.96703 -8.7891,-16.05465 H 5460.0043 V 4845.5296 c -15.8443,0.162 -31.6726,1.1332 -47.5048,1.8457 z m -1822.3095,-21.6651 c -66.368,-1.4863 -132.7402,-2.9981 -199.087,-5.2588 v -31.4648 c 26.5216,-0.9924 53.0213,-2.4566 79.3799,-5.7275 43.8775,-4.8065 87.7129,-9.9481 131.543,-15.1465 -13.6076,17.2431 -17.6405,37.9102 -11.8359,57.5976 z M 4409.741,1080.8224 c 5.3146,-1.0652 10.6211,-2.1666 15.9375,-3.2226 1.0107,1.079 2.0369,2.1431 3.0469,3.2226 z" />
    </clipPath>
  </defs>
  <sodipodi:namedview
     id="namedview8"
     pagecolor="#ffffff"
     bordercolor="#000000"
     borderopacity="0.25"
     inkscape:showpageshadow="2"
     inkscape:pageopacity="0.0"
     inkscape:pagecheckerboard="0"
     inkscape:deskcolor="#d1d1d1"
     inkscape:document-units="pt"
     showgrid="false"
     inkscape:zoom="4"
     inkscape:cx="26.75"
     inkscape:cy="53.625"
     inkscape:window-width="1280"
     inkscape:window-height="915"
     inkscape:window-x="0"
     inkscape:window-y="31"
     inkscape:window-maximized="1"
     inkscape:current-layer="svg8" />
  <g
     transform="matrix(0.1,0,0,-0.1,7.9016711,582.69455)"
     fill="#000000"
     stroke="none"
     id="g8">
    <path
       d="m 3983.2358,4037.7894 c -351.7285,-1.3717 -361.1064,0.2115 -393.8265,-11.7508 -27.5523,-8.5668 -26.3884,-8.3001 -47.6987,-24.5292 l -1.0934,-110.6475 -0.1854,-64.2665 -0.4256,-22.7401 0.2166,-51.7341 L 3540,3672 l 43,-78 c 24,-44 65,-119 92,-169 27,-49 99,-182 160,-295 61,-113 131,-241 155,-285 24,-44 98,-179 164,-300 l 121,-220 3,-668 2,-668 -25,-43 c -90,-153 70,-319 223,-230 75,44 102,136 62,214 -19,38 -20,59 -20,710 0,665 0,671 21,713 12,23 32,57 44,77 21,33 189,323 234,403 12,21 92,160 179,310 87,150 192,330 233,401 l 74,130 -3.4483,343.5134 c -2.9496,0.9995 -1.8973,18.8666 -50.507,19.7023 0,0 -58.7195,1.1753 -151.7195,1.1254 -43.4774,-0.023 -39.929,0.7532 -253.5938,0.7124 -321.3319,4.8717 -586.9923,-0.9765 -862.4956,-1.2641 z M 5063.6844,3981.8697 5060,3738 l -39,-66 c -21,-37 -49,-85 -61,-107 -12,-22 -77,-134 -144,-250 -68,-115 -187,-321 -266,-457 -79,-137 -146,-248 -149,-248 -4,0 -31,46 -61,102 -30,56 -73,136 -95,178 -105,194 -392,722 -426,783 l -39,69 v 304 l -11.335,-259.4752 1315.113,1.2822 -13.7544,195.128 z"
       id="path1"
       clip-path="url(#clipPath577)"
       transform="translate(-2207.2727,1719.4805)"
       sodipodi:nodetypes="ccccccccccsscccccccscccsccccscccccsccsscccccccc" />
    <path
       d="m 1362.462,4691.75 c -18,-10 -39,-33 -47.9999,-49 -32,-62 -39,-47 249.9999,-546 138,-239 167,-285 188,-300 12,-8 43,-15 70,-15 42,0 54,5 83,34 29,29 34,41 34,79 0,39 -15,71 -122,253 -67,115 -126,218 -132,229 -6,11 -47,82 -91,159 -66,114 -86,141 -117,157 -47,24 -75,24 -115,-1 z"
       id="path2" />
    <path
       d="m 2872.462,4691.75 c -18,-10 -38,-29 -46,-42 -8,-13 -32,-54 -54,-93 -23,-38 -112,-191 -198,-340 -96,-165 -159,-284 -162,-306 -6,-41 15,-90 49,-113 13,-9 43,-16 70,-16 38,0 54,6 77,28 17,15 94,137 171,272 78,135 157,270 175,300 75,124 95,168 95,208 0,45 -26,84 -70,107 -39,20 -69,19 -107,-5 z"
       id="path3" />
    <path
       d="m 7287.2851,740.35038 c 10.5584,17.6787 18.3324,44.1475 18.7338,59.4057 0.4005,15.2595 0.6037,62.7668 0.078,107.5411 0.8403,44.4107 1.1085,221.41352 0.7858,393.45072 0.3052,190.8949 -4.8698,325.4433 -13.3076,345.9812 -15.3711,38.4799 -58.1131,70.3406 -99.0629,73.1879 -15.7603,1.2674 -45.226,-7.7226 -68.5857,-21.2635 -32.875,-19.0568 -43.7083,-32.2726 -52.5738,-62.8403 -7.1851,-21.5028 -12.6172,-165.6679 -11.5301,-321.0803 0.2231,-155.9123 -0.4203,-312.3275 -0.9482,-347.30902 -2.6992,-144.8923 2.0648,-192.9895 22.1249,-227.5954 22.5683,-38.9316 64.621,-59.6327 114.2224,-57.4658 43.7714,2.2561 69.2241,18.1663 90.0631,57.9873 z"
       id="path3-9"
       clip-path="url(#clipPath526)"
       transform="translate(-4988.0547,2617.2753)" />
    <path
       d="m 77.462142,4648.75 c -33,-28 -48,-58 -48,-97 0,-53 30,-89 114.999998,-140 44,-26 233,-141 420,-255 187,-115 409.99993,-251 494.99996,-303 416.9999,-256 463.9999,-282 494.9999,-282 48,0 97,38 115,88 13,39 13,45 -7,84 -17,36 -37,53 -114,99 -88,52 -572.99993,349 -928.99986,567 -418,256 -429,262 -473,262 -29,0 -49.999998,-7 -68.999998,-23 z"
       id="path4" />
    <path
       d="m 4083.462,4623.75 c -43,-27 -151,-93 -239,-147 -169,-103 -447,-273 -860,-524 -137,-84 -262,-166 -277,-182 -49,-52 -34,-141 29,-180 55,-34 91,-23 264,83 85,52 179,109 209,128 30,18 143,87 250,153 107,66 227,139 265,162 220,132 524,320 552,341 91,69 42,214 -72,214 -32,0 -59,-11 -121,-48 z"
       id="path5" />
    <path
       d="m 693.46214,3503.75 c -61,-39 -70,-129 -18,-183 33,-35 40,-36 288.99993,-49 110.00003,-6 236.00003,-13 280.00003,-15 44,-2 141.9999,-8 217.9999,-11 l 137,-7 40,42 c 45,47 52,89 25,141 -25,49 -55,57 -255,69 -266.9999,16 -324.9999,19 -514.99986,26 -158,6 -172,5 -201,-13 z"
       id="path6" />
    <path
       d="m 3379.462,3514.75 c -288,-13 -627,-36 -641,-44 -37,-19 -59,-61 -59,-108 0,-54 18,-84 63,-107 31,-16 134,-16 352,0 28,3 160,10 293,17 276,14 293,19 319,93 17,50 4,95 -38,131 -32,26 -64,28 -289,18 z"
       id="path7" />
    <path
       id="path8"
       d="m 2279.4671,5475.6569 c -170.3178,-2.1054 -250.6133,-5.0757 -262.6318,-10.0488 -26,-10.9998 -49.0055,-36.006 -89.0039,-100.0049 -30,-45.9993 -59.003,-86.0039 -63.003,-89.0039 -3.9984,-3 -36.9947,35.9979 -72.9931,86.9971 -50,69.9989 -73.0049,94.008 -100.0049,103.0078 -8.4821,2.8273 -140.1854,4.8467 -315.8497,6.5332 35.2981,-39.6283 59.0233,-103.4612 57.2021,-191.6016 -0.335,-16.2154 -1.6555,-34.6701 -4.8339,-52.8515 l 158.4815,-0.088 100.0049,-140.9912 c 54.9984,-76.9987 109.9883,-144.9963 122.9883,-150.9961 12,-6 22.0019,-14.0137 22.0019,-19.0137 0,-10.9997 58.0078,-9.993 73.0078,2.0069 7,5.9998 23.9942,19.0001 38.9942,30 14,10.9998 39.0088,41.0024 54.0088,67.0019 14.9984,26.9997 51.9873,85.0055 81.9873,130.0049 l 54.0088,82.998 h 180.6445 c -0.4388,1.1287 -0.2517,0.634 -0.7471,1.9043 -11.9861,36.4624 -22.0059,73.5056 -29.7803,111.1084 -10.6251,51.3935 -11.215,95.8847 -4.4824,133.0371 z"
       clip-path="url(#clipPath437)"
       transform="translate(340.61114,-2154.6583)" />
    <path
       id="path31"
       style="fill:none;fill-rule:evenodd;stroke:#000000;stroke-width:242.788;stroke-dasharray:none;stroke-dashoffset:0;stroke-opacity:1"
       transform="matrix(1,0,0,-1,317.18684,-2172.3277)"
       d="M 1613.3496,-5343.7109 A 1356.9301,1356.9301 0 0 0 545.97656,-3874.5898 1356.9301,1356.9301 0 0 0 1895.4639,-2659.502 1356.9301,1356.9301 0 0 0 3244.9658,-3874.5898 1356.9301,1356.9301 0 0 0 2177.5928,-5343.7109 l -82.2657,386.9824 c 42.7546,43.9424 62.0761,124.5092 28.2276,234.7119 -7.8232,25.4705 -14.3413,51.2487 -20.2881,77.1533 2.9174,28.7502 2.4297,60.703 -2.7539,96.1231 -10.0169,68.4467 -11.9214,137.9619 -16.9922,206.9238 -4.5125,47.2685 -9.5835,94.4837 -15.0293,141.6504 35.8832,2.4878 67.0373,9.4388 93.7354,19.541 18.4391,-1.1936 36.8786,-2.124 55.3564,-2.3145 9.4582,-0.097 18.9251,-0.037 28.4033,0.2051 320.1937,8.1792 320.1862,332.023 0,323.5547 -28.3459,-0.7497 -56.4697,0.2378 -84.6826,2.9297 -77.9636,13.1837 -155.7207,27.2066 -234.1699,37.2803 -55.7377,6.016 -28.5004,3.2851 -81.7236,8.2617 -249.8229,23.3593 -322.2906,-169.4212 -188.6719,-268.2568 12.4442,-25.9714 34.5531,-50.3015 67.1045,-69.9756 -0.4912,-13.9256 -0.7619,-28.0724 0.2929,-43.4034 6.9049,-100.3514 3.0765,-48.5321 11.5577,-155.4492 8.4851,-89.5527 17.4179,-179.6454 32.2412,-268.5937 z"
       clip-path="url(#clipPath425)" />
  </g>
</svg>
